<svg width="25" height="24" viewBox="0 0 25 24" fill="none" xmlns="http://www.w3.org/2000/svg">
<path d="M18.6348 21C17.7937 21 16.9715 20.7471 16.2722 20.2732C15.5728 19.7994 15.0278 19.1258 14.7059 18.3378C14.384 17.5498 14.2998 16.6827 14.4639 15.8462C14.628 15.0096 15.033 14.2412 15.6278 13.6381C16.2225 13.035 16.9802 12.6243 17.8051 12.4579C18.63 12.2915 19.4851 12.3769 20.2622 12.7033C21.0392 13.0297 21.7034 13.5824 22.1706 14.2916C22.6379 15.0008 22.8873 15.8346 22.8873 16.6875C22.8861 17.8309 22.4377 18.927 21.6404 19.7355C20.8432 20.544 19.7622 20.9988 18.6348 21V21ZM18.6348 13.875C18.0862 13.875 17.55 14.04 17.0939 14.349C16.6379 14.658 16.2824 15.0973 16.0725 15.6112C15.8626 16.1251 15.8076 16.6906 15.9146 17.2362C16.0217 17.7818 16.2858 18.2829 16.6737 18.6762C17.0615 19.0696 17.5557 19.3374 18.0937 19.446C18.6317 19.5545 19.1893 19.4988 19.6961 19.2859C20.2029 19.073 20.636 18.7126 20.9408 18.25C21.2455 17.7875 21.4082 17.2438 21.4082 16.6875C21.4073 15.9418 21.1148 15.227 20.5949 14.6997C20.075 14.1725 19.3701 13.8759 18.6348 13.875V13.875Z" fill="#1D2E5B"/>
<path d="M6.43176 21C5.59069 21 4.7685 20.7471 4.06917 20.2732C3.36984 19.7994 2.82477 19.1258 2.50291 18.3378C2.18104 17.5498 2.09683 16.6827 2.26091 15.8462C2.425 15.0096 2.83002 14.2412 3.42475 13.6381C4.01948 13.035 4.77721 12.6243 5.60213 12.4579C6.42705 12.2915 7.2821 12.3769 8.05915 12.7033C8.8362 13.0297 9.50036 13.5824 9.96764 14.2916C10.4349 15.0008 10.6843 15.8346 10.6843 16.6875C10.6831 17.8309 10.2347 18.927 9.43743 19.7355C8.64018 20.544 7.55924 20.9988 6.43176 21V21ZM6.43176 13.875C5.88324 13.875 5.34703 14.04 4.89094 14.349C4.43485 14.658 4.07938 15.0973 3.86947 15.6112C3.65955 16.1251 3.60463 16.6906 3.71164 17.2362C3.81866 17.7818 4.0828 18.2829 4.47067 18.6762C4.85854 19.0696 5.35271 19.3374 5.8907 19.446C6.42869 19.5545 6.98633 19.4988 7.4931 19.2859C7.99988 19.073 8.43303 18.7126 8.73777 18.25C9.04252 17.7875 9.20518 17.2438 9.20518 16.6875C9.20432 15.9418 8.91185 15.227 8.39192 14.6997C7.87199 14.1725 7.16706 13.8759 6.43176 13.875V13.875Z" fill="#1D2E5B"/>
<path d="M15.4916 6.00005C15.6864 6.00073 15.8794 5.96225 16.0595 5.88681C16.2395 5.81138 16.4031 5.7005 16.5406 5.56058C16.6782 5.42065 16.787 5.25447 16.8608 5.07163C16.9347 4.88879 16.972 4.69293 16.9707 4.49536C16.9729 4.29878 16.9364 4.10374 16.8633 3.92164C16.7903 3.73954 16.6821 3.57403 16.5453 3.4348C16.4084 3.29558 16.2456 3.18542 16.0662 3.11077C15.8869 3.03612 15.6947 2.99848 15.5008 3.00005C15.3066 2.99943 15.1141 3.03762 14.9344 3.11243C14.7547 3.18725 14.5913 3.29722 14.4535 3.43607C14.3158 3.57492 14.2063 3.73994 14.1314 3.92169C14.0565 4.10344 14.0176 4.29838 14.017 4.49536C14.0164 4.69234 14.0541 4.88752 14.1279 5.06974C14.2016 5.25197 14.3101 5.41767 14.447 5.55739C14.5839 5.69712 14.7466 5.80812 14.9259 5.88407C15.1051 5.96002 15.2973 5.99943 15.4916 6.00005V6.00005Z" fill="#1D2E5B"/>
<path d="M17.6895 9.00003H15.6668C15.6336 9.00004 15.601 8.99099 15.5725 8.97384C15.5439 8.95668 15.5205 8.93205 15.5045 8.90253L14.0374 6.17581C13.934 5.97318 13.7851 5.79807 13.6025 5.66467C13.42 5.53127 13.2091 5.44333 12.9869 5.40795C12.7646 5.37258 12.5373 5.39077 12.3232 5.46106C12.1092 5.53135 11.9145 5.65175 11.7549 5.81253L8.5257 9.11253C8.25442 9.39333 8.10043 9.76945 8.09583 10.1625C8.09583 10.9782 8.67824 11.2688 8.95096 11.4328C10.2683 12.2025 11.196 12.7655 11.705 13.0782C11.732 13.0949 11.7544 13.1183 11.7699 13.1463C11.7855 13.1743 11.7937 13.2059 11.7937 13.238V16.478C11.7937 16.8816 12.0997 17.228 12.4977 17.2482C12.5976 17.253 12.6975 17.2373 12.7912 17.2019C12.885 17.1666 12.9707 17.1123 13.0431 17.0423C13.1156 16.9724 13.1733 16.8883 13.2128 16.7951C13.2523 16.7018 13.2727 16.6015 13.2729 16.5V12.4688C13.2729 12.3497 13.245 12.2324 13.1915 12.1264C13.138 12.0204 13.0603 11.9289 12.965 11.8594L11.2547 10.6121C11.2333 10.5965 11.2153 10.5764 11.2022 10.5532C11.189 10.53 11.1808 10.5043 11.1783 10.4776C11.1758 10.451 11.1789 10.4241 11.1874 10.3988C11.196 10.3734 11.2098 10.3503 11.2279 10.3308L13.1693 8.23128C13.1892 8.20968 13.2139 8.19316 13.2413 8.18307C13.2687 8.17297 13.2981 8.1696 13.327 8.17321C13.3559 8.17682 13.3836 8.18731 13.4078 8.20384C13.432 8.22037 13.4519 8.24246 13.4661 8.26831L14.4747 10.1143C14.5388 10.2313 14.6326 10.3288 14.7464 10.3966C14.8602 10.4644 14.9898 10.5001 15.1218 10.5H17.7103C17.8105 10.5002 17.9097 10.4796 18.0018 10.4397C18.0939 10.3998 18.1771 10.3413 18.2463 10.2678C18.3154 10.1942 18.3691 10.1073 18.4041 10.012C18.4392 9.91685 18.4547 9.81543 18.4499 9.71394C18.4305 9.31035 18.0875 9.00003 17.6895 9.00003Z" fill="#1D2E5B"/>
</svg>
