<svg width="18" height="21" viewBox="0 0 18 21" fill="none" xmlns="http://www.w3.org/2000/svg">
<g clip-path="url(#clip0)">
<path d="M4.66773 13.9485C4.66773 13.5699 4.52912 13.2467 4.25189 12.9788C3.97466 12.711 3.64015 12.5771 3.24833 12.5771C2.85652 12.5771 2.522 12.711 2.24478 12.9788C1.96755 13.2467 1.82894 13.5699 1.82894 13.9485C1.82894 14.3271 1.96755 14.6503 2.24478 14.9181C2.522 15.186 2.85652 15.3199 3.24833 15.3199C3.64015 15.3199 3.97466 15.186 4.25189 14.9181C4.52912 14.6503 4.66773 14.3271 4.66773 13.9485ZM16.0229 13.9485C16.0229 13.5699 15.8843 13.2467 15.607 12.9788C15.3298 12.711 14.9953 12.5771 14.6035 12.5771C14.2117 12.5771 13.8772 12.711 13.5999 12.9788C13.3227 13.2467 13.1841 13.5699 13.1841 13.9485C13.1841 14.3271 13.3227 14.6503 13.5999 14.9181C13.8772 15.186 14.2117 15.3199 14.6035 15.3199C14.9953 15.3199 15.3298 15.186 15.607 14.9181C15.8843 14.6503 16.0229 14.3271 16.0229 13.9485ZM15.5128 9.70563L14.7144 5.59135C14.6774 5.42706 14.5942 5.29313 14.4649 5.18956C14.3355 5.08599 14.1858 5.0342 14.0158 5.0342H3.83605C3.66602 5.0342 3.51632 5.08599 3.38695 5.18956C3.25758 5.29313 3.17441 5.42706 3.13744 5.59135L2.33903 9.70563C2.30207 9.91992 2.35382 10.1092 2.49428 10.2735C2.63474 10.4378 2.81586 10.5199 3.03764 10.5199H14.8142C15.036 10.5199 15.2171 10.4378 15.3575 10.2735C15.498 10.1092 15.5498 9.91992 15.5128 9.70563ZM13.0067 3.14849C13.0067 3.00563 12.9549 2.88421 12.8514 2.78421C12.7479 2.68421 12.6222 2.63421 12.4744 2.63421H5.37743C5.22957 2.63421 5.1039 2.68421 5.0004 2.78421C4.8969 2.88421 4.84515 3.00563 4.84515 3.14849C4.84515 3.29135 4.8969 3.41278 5.0004 3.51278C5.1039 3.61278 5.22957 3.66278 5.37743 3.66278H12.4744C12.6222 3.66278 12.7479 3.61278 12.8514 3.51278C12.9549 3.41278 13.0067 3.29135 13.0067 3.14849ZM17.4423 10.9163V17.3771H16.0229V18.7485C16.0229 19.1271 15.8843 19.4503 15.607 19.7181C15.3298 19.986 14.9953 20.1199 14.6035 20.1199C14.2117 20.1199 13.8772 19.986 13.5999 19.7181C13.3227 19.4503 13.1841 19.1271 13.1841 18.7485V17.3771H4.66773V18.7485C4.66773 19.1271 4.52912 19.4503 4.25189 19.7181C3.97466 19.986 3.64015 20.1199 3.24833 20.1199C2.85652 20.1199 2.522 19.986 2.24478 19.7181C1.96755 19.4503 1.82894 19.1271 1.82894 18.7485V17.3771H0.409546V10.9163C0.409546 10.1163 0.501954 9.31992 0.686771 8.52706L1.82894 3.66278C1.89547 3.10563 2.25587 2.61635 2.91012 2.19492C3.56437 1.77349 4.41453 1.45564 5.46059 1.24135C6.50666 1.02706 7.66176 0.919922 8.92591 0.919922C10.1901 0.919922 11.3452 1.02706 12.3912 1.24135C13.4373 1.45564 14.2875 1.77349 14.9417 2.19492C15.596 2.61635 15.9563 3.10563 16.0229 3.66278L17.1872 8.52706C17.3573 9.25563 17.4423 10.0521 17.4423 10.9163Z" fill="#1D2E5B"/>
</g>
<defs>
<clipPath id="clip0">
<rect width="17.0398" height="19.2" fill="white" transform="translate(0.40686 0.919922)"/>
</clipPath>
</defs>
</svg>
