<svg width="22" height="23" viewBox="0 0 22 23" fill="none" xmlns="http://www.w3.org/2000/svg">
<g clip-path="url(#clip0)">
<path d="M17.1104 2.09314C16.3819 2.26635 15.6499 2.44038 15.3777 2.91723L13.2706 7.11585L1.95643 9.8059L1.49803 11.1474L10.1559 11.9662L8.68694 15.6009L5.40351 16.3816L4.57914 17.8101L6.94789 18.0673L7.218 19.2357C7.33901 19.6498 7.76376 19.9263 8.1263 19.8401L9.22078 19.5799L10.4895 21.7433L11.3139 20.3148L10.5035 16.8098L12.8808 13.7795L17.4168 21.741L18.3315 20.7031L15.5401 8.62921L18.1035 4.73424C18.3791 4.25657 18.1993 3.47891 18.0187 2.69759C17.9292 2.31059 17.4729 2.00694 17.1104 2.09314Z" fill="#101D41"/>
</g>
<defs>
<clipPath id="clip0">
<rect width="20.8265" height="21.12" fill="white" transform="translate(0.327271 0.959961)"/>
</clipPath>
</defs>
</svg>
