<svg width="22" height="24" viewBox="0 0 22 24" fill="none" xmlns="http://www.w3.org/2000/svg">
<path d="M15.3031 5.75992C16.2537 5.75992 17.0243 4.90031 17.0243 3.83992C17.0243 2.77954 16.2537 1.91992 15.3031 1.91992C14.3525 1.91992 13.5819 2.77954 13.5819 3.83992C13.5819 4.90031 14.3525 5.75992 15.3031 5.75992Z" fill="#1D2E5B"/>
<path d="M14.2506 10.5302C14.4482 10.8586 14.7315 11.1113 15.0623 11.2538C15.393 11.3964 15.755 11.4219 16.0992 11.327L18.9529 10.5312L18.5372 8.66881L15.6835 9.46465L14.4967 7.48033C14.2432 7.05655 13.8497 6.76184 13.4021 6.66049L10.0922 5.92129C9.72192 5.83839 9.33748 5.89379 8.99824 6.07893C8.659 6.26406 8.38384 6.56863 8.21524 6.94561L6.78837 10.129L8.32798 10.9882L9.75485 7.80385L11.4476 8.18209L7.07065 16.32H3.25476V18.24H7.07065C7.67134 18.24 8.23676 17.8829 8.54657 17.3078L10.1972 14.2397L14.6456 15.2323L16.2085 20.4634L17.8402 19.8557L16.2782 14.6256C16.1818 14.3045 16.0112 14.0174 15.7837 13.7933C15.5562 13.5691 15.2797 13.4158 14.9821 13.3488L12.3668 12.7661L13.8917 9.93025L14.2506 10.5302V10.5302Z" fill="#1D2E5B"/>
</svg>
